<svg xmlns="http://www.w3.org/2000/svg" xmlns:xlink="http://www.w3.org/1999/xlink" width="1000" zoomAndPan="magnify" viewBox="0 0 750 299.999988" height="400" preserveAspectRatio="xMidYMid meet" version="1.0"><defs><g/><clipPath id="262ad42846"><path d="M 604.980469 84.441406 L 742.410156 84.441406 L 742.410156 222 L 604.980469 222 Z M 604.980469 84.441406 " clip-rule="nonzero"/></clipPath><clipPath id="42deacb04d"><path d="M 673.613281 221.980469 C 655.289062 221.980469 638.035156 214.851562 625.085938 201.875 C 612.109375 188.925781 604.980469 171.671875 604.980469 153.347656 C 604.980469 135.023438 612.109375 117.769531 625.085938 104.820312 C 638.035156 91.847656 655.289062 84.714844 673.613281 84.714844 C 691.9375 84.714844 709.191406 91.847656 722.140625 104.820312 C 735.113281 117.796875 742.246094 135.023438 742.246094 153.347656 C 742.246094 171.671875 735.113281 188.925781 722.140625 201.875 C 709.191406 214.851562 691.9375 221.980469 673.613281 221.980469 Z M 673.613281 88.828125 C 656.386719 88.828125 640.171875 95.550781 627.992188 107.730469 C 615.816406 119.910156 609.09375 136.121094 609.09375 153.347656 C 609.09375 170.574219 615.816406 186.789062 627.992188 198.96875 C 640.171875 211.148438 656.386719 217.867188 673.613281 217.867188 C 690.839844 217.867188 707.050781 211.148438 719.230469 198.96875 C 731.410156 186.789062 738.132812 170.574219 738.132812 153.347656 C 738.132812 136.121094 731.410156 119.910156 719.230469 107.730469 C 707.050781 95.550781 690.839844 88.828125 673.613281 88.828125 Z M 673.613281 88.828125 " clip-rule="nonzero"/></clipPath><clipPath id="880cb223d2"><path d="M 590.847656 101.339844 L 639.722656 101.339844 L 639.722656 150.214844 L 590.847656 150.214844 Z M 590.847656 101.339844 " clip-rule="nonzero"/></clipPath><clipPath id="df0a4a249a"><path d="M 615.285156 101.339844 C 601.75 101.339844 590.847656 112.242188 590.847656 125.777344 C 590.847656 139.3125 601.75 150.214844 615.285156 150.214844 C 628.695312 150.214844 639.722656 139.3125 639.722656 125.777344 C 639.722656 112.242188 628.695312 101.339844 615.285156 101.339844 Z M 615.285156 146.453125 C 603.878906 146.453125 594.605469 137.179688 594.605469 125.777344 C 594.605469 114.371094 603.878906 105.097656 615.285156 105.097656 C 626.6875 105.097656 635.960938 114.371094 635.960938 125.777344 C 635.960938 137.179688 626.6875 146.453125 615.285156 146.453125 Z M 615.285156 146.453125 " clip-rule="nonzero"/></clipPath><clipPath id="4ce9a4514e"><path d="M 594.605469 105.097656 L 635.960938 105.097656 L 635.960938 146.453125 L 594.605469 146.453125 Z M 594.605469 105.097656 " clip-rule="nonzero"/></clipPath><clipPath id="279455bc61"><path d="M 615.285156 105.097656 C 603.878906 105.097656 594.605469 114.371094 594.605469 125.777344 C 594.605469 137.179688 603.878906 146.453125 615.285156 146.453125 C 626.6875 146.453125 635.960938 137.179688 635.960938 125.777344 C 635.960938 114.371094 626.6875 105.097656 615.285156 105.097656 Z M 615.285156 105.097656 " clip-rule="nonzero"/></clipPath><clipPath id="735fc65793"><path d="M 594.511719 105.003906 L 636.054688 105.003906 L 636.054688 146.546875 L 594.511719 146.546875 Z M 594.511719 105.003906 " clip-rule="nonzero"/></clipPath><clipPath id="f59921742c"><path d="M 615.285156 105.003906 C 603.78125 105.003906 594.511719 114.273438 594.511719 125.777344 C 594.511719 137.28125 603.78125 146.546875 615.285156 146.546875 C 626.683594 146.546875 636.054688 137.28125 636.054688 125.777344 C 636.054688 114.273438 626.683594 105.003906 615.285156 105.003906 Z M 615.285156 143.351562 C 605.589844 143.351562 597.707031 135.46875 597.707031 125.777344 C 597.707031 116.082031 605.589844 108.199219 615.285156 108.199219 C 624.976562 108.199219 632.859375 116.082031 632.859375 125.777344 C 632.859375 135.46875 624.976562 143.351562 615.285156 143.351562 Z M 615.285156 143.351562 " clip-rule="nonzero"/></clipPath><clipPath id="be0794b03b"><path d="M 597.707031 108.199219 L 632.859375 108.199219 L 632.859375 143.351562 L 597.707031 143.351562 Z M 597.707031 108.199219 " clip-rule="nonzero"/></clipPath><clipPath id="122597f650"><path d="M 615.285156 108.199219 C 605.589844 108.199219 597.707031 116.082031 597.707031 125.777344 C 597.707031 135.46875 605.589844 143.351562 615.285156 143.351562 C 624.976562 143.351562 632.859375 135.46875 632.859375 125.777344 C 632.859375 116.082031 624.976562 108.199219 615.285156 108.199219 Z M 615.285156 108.199219 " clip-rule="nonzero"/></clipPath></defs><g clip-path="url(#262ad42846)"><g clip-path="url(#42deacb04d)"><path fill="#000000" d="M 604.980469 84.714844 L 742.136719 84.714844 L 742.136719 221.871094 L 604.980469 221.871094 Z M 604.980469 84.714844 " fill-opacity="1" fill-rule="nonzero"/></g></g><g clip-path="url(#880cb223d2)"><g clip-path="url(#df0a4a249a)"><path fill="#ffffff" d="M 590.847656 101.339844 L 639.722656 101.339844 L 639.722656 150.214844 L 590.847656 150.214844 Z M 590.847656 101.339844 " fill-opacity="1" fill-rule="nonzero"/></g></g><g clip-path="url(#4ce9a4514e)"><g clip-path="url(#279455bc61)"><path fill="#ffffff" d="M 590.847656 101.339844 L 639.722656 101.339844 L 639.722656 150.214844 L 590.847656 150.214844 Z M 590.847656 101.339844 " fill-opacity="1" fill-rule="nonzero"/></g></g><g clip-path="url(#735fc65793)"><g clip-path="url(#f59921742c)"><path fill="#000000" d="M 594.511719 105.003906 L 636.054688 105.003906 L 636.054688 146.546875 L 594.511719 146.546875 Z M 594.511719 105.003906 " fill-opacity="1" fill-rule="nonzero"/></g></g><g clip-path="url(#be0794b03b)"><g clip-path="url(#122597f650)"><path fill="#ffffff" d="M 594.511719 105.003906 L 636.054688 105.003906 L 636.054688 146.546875 L 594.511719 146.546875 Z M 594.511719 105.003906 " fill-opacity="1" fill-rule="nonzero"/></g></g><g fill="#000000" fill-opacity="1"><g transform="translate(310.519654, 158.138533)"><g/></g></g><g fill="#000000" fill-opacity="1"><g transform="translate(329.446159, 158.138533)"><g><path d="M 41.03125 0 C 41.03125 -1.425781 40.507812 -2.238281 39.46875 -2.4375 C 39.144531 -2.5 38.820312 -2.53125 38.5 -2.53125 L 31.890625 -2.53125 L 31.890625 -55.8125 L 37.53125 -55.8125 C 42.78125 -55.8125 46.28125 -52.632812 48.03125 -46.28125 C 48.03125 -46.019531 48.0625 -45.828125 48.125 -45.703125 L 49.6875 -39.1875 L 52.40625 -39.1875 L 51.921875 -58.34375 L 3.890625 -58.34375 L 3.40625 -39.1875 L 6.125 -39.1875 L 7.6875 -45.703125 C 9.757812 -52.046875 13.289062 -55.414062 18.28125 -55.8125 L 23.53125 -55.8125 L 23.53125 -2.53125 L 14.296875 -2.53125 L 14.296875 0 Z M 41.03125 0 "/></g></g><g transform="translate(385.253423, 158.138533)"><g><path d="M 27.703125 0 L 27.703125 -2.53125 L 20.03125 -2.53125 L 20.03125 -26.734375 L 29.265625 -26.734375 L 44.828125 0 L 59.5 0 C 59.5 -1.425781 59.113281 -2.238281 58.34375 -2.4375 C 58.007812 -2.5 57.617188 -2.53125 57.171875 -2.53125 L 53.46875 -2.53125 L 37.828125 -27.609375 C 43.984375 -29.097656 48.195312 -32.304688 50.46875 -37.234375 C 51.300781 -39.179688 51.71875 -41.160156 51.71875 -43.171875 C 51.71875 -48.035156 49.613281 -51.925781 45.40625 -54.84375 C 41.96875 -57.175781 37.722656 -58.34375 32.671875 -58.34375 L 3.890625 -58.34375 L 3.890625 -55.8125 L 11.671875 -55.8125 L 11.671875 -2.53125 L 3.890625 -2.53125 L 3.890625 0 Z M 29.75 -55.8125 C 35.320312 -55.8125 39.179688 -53.539062 41.328125 -49 C 42.171875 -47.125 42.59375 -45.148438 42.59375 -43.078125 C 42.59375 -38.410156 40.96875 -34.78125 37.71875 -32.1875 C 35.519531 -30.4375 32.960938 -29.5625 30.046875 -29.5625 L 20.03125 -29.5625 L 20.03125 -55.8125 Z M 29.75 -55.8125 "/></g></g><g transform="translate(444.755245, 158.138533)"><g><path d="M 0.96875 -55.8125 L 8.75 -55.8125 L 8.75 -21.875 C 8.875 -6.707031 16.425781 0.90625 31.40625 0.96875 C 42.8125 0.96875 49.710938 -3.695312 52.109375 -13.03125 C 52.828125 -15.882812 53.1875 -19.125 53.1875 -22.75 L 53.1875 -55.8125 L 60.96875 -55.8125 L 60.96875 -58.34375 L 42 -58.34375 L 42 -55.8125 L 49.78125 -55.8125 L 49.78125 -22.171875 C 49.78125 -9.597656 45.113281 -2.820312 35.78125 -1.84375 C 35 -1.78125 34.222656 -1.75 33.453125 -1.75 C 25.535156 -1.75 20.539062 -5.085938 18.46875 -11.765625 C 17.5625 -14.679688 17.109375 -18.242188 17.109375 -22.453125 L 17.109375 -55.8125 L 24.796875 -55.8125 L 24.796875 -58.34375 L 0.96875 -58.34375 Z M 0.96875 -55.8125 "/></g></g><g transform="translate(506.20157, 158.138533)"><g><path d="M 49.203125 -40.84375 L 48.71875 -58.34375 L 3.890625 -58.34375 L 3.890625 -55.8125 L 11.671875 -55.8125 L 11.671875 -2.53125 L 3.890625 -2.53125 L 3.890625 0 L 48.71875 0 L 49.203125 -17.5 L 47.25 -17.5 L 45.890625 -12.9375 C 44.273438 -7.425781 41.878906 -4.117188 38.703125 -3.015625 C 37.722656 -2.691406 36.679688 -2.53125 35.578125 -2.53125 L 20.03125 -2.53125 L 20.03125 -28.6875 L 40.0625 -28.6875 L 40.0625 -31.5 L 20.03125 -31.5 L 20.03125 -55.8125 L 35.578125 -55.8125 C 40.253906 -55.8125 43.59375 -52.664062 45.59375 -46.375 C 45.726562 -45.988281 45.828125 -45.664062 45.890625 -45.40625 L 47.25 -40.84375 Z M 49.203125 -40.84375 "/></g></g></g><g fill="#000000" fill-opacity="1"><g transform="translate(10.741084, 209.814194)"><g><path d="M 29.546875 -16.09375 C 29.546875 -10.875 28.128906 -6.882812 25.296875 -4.125 C 22.472656 -1.375 18.40625 0 13.09375 0 L 4.34375 0 L 4.34375 -31.578125 L 14.015625 -31.578125 C 18.929688 -31.578125 22.75 -30.210938 25.46875 -27.484375 C 28.1875 -24.765625 29.546875 -20.96875 29.546875 -16.09375 Z M 25.65625 -15.96875 C 25.65625 -20.082031 24.617188 -23.179688 22.546875 -25.265625 C 20.484375 -27.359375 17.414062 -28.40625 13.34375 -28.40625 L 8.015625 -28.40625 L 8.015625 -3.171875 L 12.484375 -3.171875 C 16.859375 -3.171875 20.144531 -4.25 22.34375 -6.40625 C 24.550781 -8.5625 25.65625 -11.75 25.65625 -15.96875 Z M 25.65625 -15.96875 "/></g></g></g><g fill="#000000" fill-opacity="1"><g transform="translate(42.980244, 209.814194)"><g><path d="M 18.359375 0 L 17.640625 -3.375 L 17.46875 -3.375 C 16.289062 -1.882812 15.113281 -0.875 13.9375 -0.34375 C 12.769531 0.175781 11.304688 0.4375 9.546875 0.4375 C 7.203125 0.4375 5.363281 -0.164062 4.03125 -1.375 C 2.695312 -2.59375 2.03125 -4.316406 2.03125 -6.546875 C 2.03125 -11.328125 5.851562 -13.832031 13.5 -14.0625 L 17.515625 -14.1875 L 17.515625 -15.65625 C 17.515625 -17.519531 17.113281 -18.894531 16.3125 -19.78125 C 15.519531 -20.664062 14.242188 -21.109375 12.484375 -21.109375 C 10.515625 -21.109375 8.28125 -20.5 5.78125 -19.28125 L 4.6875 -22.03125 C 5.851562 -22.664062 7.128906 -23.160156 8.515625 -23.515625 C 9.910156 -23.878906 11.304688 -24.0625 12.703125 -24.0625 C 15.523438 -24.0625 17.613281 -23.429688 18.96875 -22.171875 C 20.332031 -20.921875 21.015625 -18.914062 21.015625 -16.15625 L 21.015625 0 Z M 10.265625 -2.53125 C 12.492188 -2.53125 14.242188 -3.140625 15.515625 -4.359375 C 16.796875 -5.585938 17.4375 -7.300781 17.4375 -9.5 L 17.4375 -11.640625 L 13.84375 -11.484375 C 10.988281 -11.390625 8.929688 -10.945312 7.671875 -10.15625 C 6.410156 -9.375 5.78125 -8.15625 5.78125 -6.5 C 5.78125 -5.207031 6.171875 -4.222656 6.953125 -3.546875 C 7.742188 -2.867188 8.847656 -2.53125 10.265625 -2.53125 Z M 10.265625 -2.53125 "/></g></g></g><g fill="#000000" fill-opacity="1"><g transform="translate(67.575289, 209.814194)"><g><path d="M 11.453125 -2.53125 C 12.078125 -2.53125 12.6875 -2.578125 13.28125 -2.671875 C 13.875 -2.765625 14.34375 -2.859375 14.6875 -2.953125 L 14.6875 -0.21875 C 14.300781 -0.03125 13.726562 0.125 12.96875 0.25 C 12.21875 0.375 11.535156 0.4375 10.921875 0.4375 C 6.347656 0.4375 4.0625 -1.972656 4.0625 -6.796875 L 4.0625 -20.890625 L 0.671875 -20.890625 L 0.671875 -22.609375 L 4.0625 -24.109375 L 5.578125 -29.15625 L 7.640625 -29.15625 L 7.640625 -23.671875 L 14.515625 -23.671875 L 14.515625 -20.890625 L 7.640625 -20.890625 L 7.640625 -6.953125 C 7.640625 -5.523438 7.976562 -4.429688 8.65625 -3.671875 C 9.332031 -2.910156 10.265625 -2.53125 11.453125 -2.53125 Z M 11.453125 -2.53125 "/></g></g></g><g fill="#000000" fill-opacity="1"><g transform="translate(83.187421, 209.814194)"><g><path d="M 18.359375 0 L 17.640625 -3.375 L 17.46875 -3.375 C 16.289062 -1.882812 15.113281 -0.875 13.9375 -0.34375 C 12.769531 0.175781 11.304688 0.4375 9.546875 0.4375 C 7.203125 0.4375 5.363281 -0.164062 4.03125 -1.375 C 2.695312 -2.59375 2.03125 -4.316406 2.03125 -6.546875 C 2.03125 -11.328125 5.851562 -13.832031 13.5 -14.0625 L 17.515625 -14.1875 L 17.515625 -15.65625 C 17.515625 -17.519531 17.113281 -18.894531 16.3125 -19.78125 C 15.519531 -20.664062 14.242188 -21.109375 12.484375 -21.109375 C 10.515625 -21.109375 8.28125 -20.5 5.78125 -19.28125 L 4.6875 -22.03125 C 5.851562 -22.664062 7.128906 -23.160156 8.515625 -23.515625 C 9.910156 -23.878906 11.304688 -24.0625 12.703125 -24.0625 C 15.523438 -24.0625 17.613281 -23.429688 18.96875 -22.171875 C 20.332031 -20.921875 21.015625 -18.914062 21.015625 -16.15625 L 21.015625 0 Z M 10.265625 -2.53125 C 12.492188 -2.53125 14.242188 -3.140625 15.515625 -4.359375 C 16.796875 -5.585938 17.4375 -7.300781 17.4375 -9.5 L 17.4375 -11.640625 L 13.84375 -11.484375 C 10.988281 -11.390625 8.929688 -10.945312 7.671875 -10.15625 C 6.410156 -9.375 5.78125 -8.15625 5.78125 -6.5 C 5.78125 -5.207031 6.171875 -4.222656 6.953125 -3.546875 C 7.742188 -2.867188 8.847656 -2.53125 10.265625 -2.53125 Z M 10.265625 -2.53125 "/></g></g></g><g fill="#000000" fill-opacity="1"><g transform="translate(107.782466, 209.814194)"><g/></g></g><g fill="#000000" fill-opacity="1"><g transform="translate(119.270231, 209.814194)"><g><path d="M 22.15625 -8.40625 C 22.15625 -5.625 21.144531 -3.453125 19.125 -1.890625 C 17.113281 -0.335938 14.378906 0.4375 10.921875 0.4375 C 7.179688 0.4375 4.304688 -0.046875 2.296875 -1.015625 L 2.296875 -4.5625 C 3.585938 -4.007812 4.992188 -3.570312 6.515625 -3.25 C 8.046875 -2.9375 9.5625 -2.78125 11.0625 -2.78125 C 13.507812 -2.78125 15.351562 -3.242188 16.59375 -4.171875 C 17.832031 -5.109375 18.453125 -6.40625 18.453125 -8.0625 C 18.453125 -9.15625 18.226562 -10.050781 17.78125 -10.75 C 17.34375 -11.445312 16.609375 -12.085938 15.578125 -12.671875 C 14.554688 -13.265625 12.992188 -13.9375 10.890625 -14.6875 C 7.953125 -15.738281 5.851562 -16.984375 4.59375 -18.421875 C 3.332031 -19.859375 2.703125 -21.738281 2.703125 -24.0625 C 2.703125 -26.5 3.613281 -28.4375 5.4375 -29.875 C 7.269531 -31.3125 9.691406 -32.03125 12.703125 -32.03125 C 15.835938 -32.03125 18.722656 -31.453125 21.359375 -30.296875 L 20.21875 -27.109375 C 17.613281 -28.203125 15.078125 -28.75 12.609375 -28.75 C 10.671875 -28.75 9.15625 -28.332031 8.0625 -27.5 C 6.96875 -26.664062 6.421875 -25.503906 6.421875 -24.015625 C 6.421875 -22.921875 6.617188 -22.023438 7.015625 -21.328125 C 7.421875 -20.628906 8.101562 -19.988281 9.0625 -19.40625 C 10.019531 -18.820312 11.484375 -18.175781 13.453125 -17.46875 C 16.765625 -16.289062 19.039062 -15.023438 20.28125 -13.671875 C 21.53125 -12.316406 22.15625 -10.5625 22.15625 -8.40625 Z M 22.15625 -8.40625 "/></g></g></g><g fill="#000000" fill-opacity="1"><g transform="translate(143.541373, 209.814194)"><g><path d="M 13.265625 0.4375 C 9.835938 0.4375 7.179688 -0.613281 5.296875 -2.71875 C 3.421875 -4.832031 2.484375 -7.820312 2.484375 -11.6875 C 2.484375 -15.644531 3.4375 -18.703125 5.34375 -20.859375 C 7.25 -23.023438 9.96875 -24.109375 13.5 -24.109375 C 14.632812 -24.109375 15.769531 -23.984375 16.90625 -23.734375 C 18.050781 -23.492188 18.945312 -23.207031 19.59375 -22.875 L 18.484375 -19.828125 C 17.691406 -20.140625 16.828125 -20.398438 15.890625 -20.609375 C 14.960938 -20.816406 14.132812 -20.921875 13.40625 -20.921875 C 8.601562 -20.921875 6.203125 -17.859375 6.203125 -11.734375 C 6.203125 -8.816406 6.785156 -6.582031 7.953125 -5.03125 C 9.128906 -3.476562 10.867188 -2.703125 13.171875 -2.703125 C 15.148438 -2.703125 17.175781 -3.125 19.25 -3.96875 L 19.25 -0.796875 C 17.664062 0.0234375 15.671875 0.4375 13.265625 0.4375 Z M 13.265625 0.4375 "/></g></g></g><g fill="#000000" fill-opacity="1"><g transform="translate(164.595077, 209.814194)"><g><path d="M 7.390625 0 L 3.796875 0 L 3.796875 -23.671875 L 7.390625 -23.671875 Z M 3.5 -30.09375 C 3.5 -30.90625 3.695312 -31.503906 4.09375 -31.890625 C 4.5 -32.273438 5.003906 -32.46875 5.609375 -32.46875 C 6.191406 -32.46875 6.691406 -32.269531 7.109375 -31.875 C 7.523438 -31.488281 7.734375 -30.894531 7.734375 -30.09375 C 7.734375 -29.28125 7.523438 -28.675781 7.109375 -28.28125 C 6.691406 -27.882812 6.191406 -27.6875 5.609375 -27.6875 C 5.003906 -27.6875 4.5 -27.882812 4.09375 -28.28125 C 3.695312 -28.675781 3.5 -29.28125 3.5 -30.09375 Z M 3.5 -30.09375 "/></g></g></g><g fill="#000000" fill-opacity="1"><g transform="translate(175.780532, 209.814194)"><g><path d="M 13.796875 0.4375 C 10.296875 0.4375 7.535156 -0.628906 5.515625 -2.765625 C 3.492188 -4.898438 2.484375 -7.859375 2.484375 -11.640625 C 2.484375 -15.453125 3.421875 -18.484375 5.296875 -20.734375 C 7.179688 -22.984375 9.707031 -24.109375 12.875 -24.109375 C 15.84375 -24.109375 18.1875 -23.128906 19.90625 -21.171875 C 21.632812 -19.222656 22.5 -16.648438 22.5 -13.453125 L 22.5 -11.1875 L 6.203125 -11.1875 C 6.273438 -8.40625 6.972656 -6.296875 8.296875 -4.859375 C 9.628906 -3.421875 11.507812 -2.703125 13.9375 -2.703125 C 16.476562 -2.703125 18.992188 -3.234375 21.484375 -4.296875 L 21.484375 -1.09375 C 20.222656 -0.550781 19.023438 -0.160156 17.890625 0.078125 C 16.765625 0.316406 15.398438 0.4375 13.796875 0.4375 Z M 12.828125 -21.109375 C 10.929688 -21.109375 9.414062 -20.488281 8.28125 -19.25 C 7.15625 -18.007812 6.488281 -16.296875 6.28125 -14.109375 L 18.65625 -14.109375 C 18.65625 -16.367188 18.148438 -18.097656 17.140625 -19.296875 C 16.140625 -20.503906 14.703125 -21.109375 12.828125 -21.109375 Z M 12.828125 -21.109375 "/></g></g></g><g fill="#000000" fill-opacity="1"><g transform="translate(200.591513, 209.814194)"><g><path d="M 20 0 L 20 -15.3125 C 20 -17.238281 19.554688 -18.675781 18.671875 -19.625 C 17.796875 -20.582031 16.425781 -21.0625 14.5625 -21.0625 C 12.082031 -21.0625 10.265625 -20.390625 9.109375 -19.046875 C 7.960938 -17.710938 7.390625 -15.503906 7.390625 -12.421875 L 7.390625 0 L 3.796875 0 L 3.796875 -23.671875 L 6.71875 -23.671875 L 7.296875 -20.4375 L 7.46875 -20.4375 C 8.207031 -21.601562 9.238281 -22.503906 10.5625 -23.140625 C 11.882812 -23.785156 13.359375 -24.109375 14.984375 -24.109375 C 17.835938 -24.109375 19.984375 -23.421875 21.421875 -22.046875 C 22.859375 -20.671875 23.578125 -18.46875 23.578125 -15.4375 L 23.578125 0 Z M 20 0 "/></g></g></g><g fill="#000000" fill-opacity="1"><g transform="translate(227.734596, 209.814194)"><g><path d="M 13.265625 0.4375 C 9.835938 0.4375 7.179688 -0.613281 5.296875 -2.71875 C 3.421875 -4.832031 2.484375 -7.820312 2.484375 -11.6875 C 2.484375 -15.644531 3.4375 -18.703125 5.34375 -20.859375 C 7.25 -23.023438 9.96875 -24.109375 13.5 -24.109375 C 14.632812 -24.109375 15.769531 -23.984375 16.90625 -23.734375 C 18.050781 -23.492188 18.945312 -23.207031 19.59375 -22.875 L 18.484375 -19.828125 C 17.691406 -20.140625 16.828125 -20.398438 15.890625 -20.609375 C 14.960938 -20.816406 14.132812 -20.921875 13.40625 -20.921875 C 8.601562 -20.921875 6.203125 -17.859375 6.203125 -11.734375 C 6.203125 -8.816406 6.785156 -6.582031 7.953125 -5.03125 C 9.128906 -3.476562 10.867188 -2.703125 13.171875 -2.703125 C 15.148438 -2.703125 17.175781 -3.125 19.25 -3.96875 L 19.25 -0.796875 C 17.664062 0.0234375 15.671875 0.4375 13.265625 0.4375 Z M 13.265625 0.4375 "/></g></g></g><g fill="#000000" fill-opacity="1"><g transform="translate(248.7883, 209.814194)"><g><path d="M 13.796875 0.4375 C 10.296875 0.4375 7.535156 -0.628906 5.515625 -2.765625 C 3.492188 -4.898438 2.484375 -7.859375 2.484375 -11.640625 C 2.484375 -15.453125 3.421875 -18.484375 5.296875 -20.734375 C 7.179688 -22.984375 9.707031 -24.109375 12.875 -24.109375 C 15.84375 -24.109375 18.1875 -23.128906 19.90625 -21.171875 C 21.632812 -19.222656 22.5 -16.648438 22.5 -13.453125 L 22.5 -11.1875 L 6.203125 -11.1875 C 6.273438 -8.40625 6.972656 -6.296875 8.296875 -4.859375 C 9.628906 -3.421875 11.507812 -2.703125 13.9375 -2.703125 C 16.476562 -2.703125 18.992188 -3.234375 21.484375 -4.296875 L 21.484375 -1.09375 C 20.222656 -0.550781 19.023438 -0.160156 17.890625 0.078125 C 16.765625 0.316406 15.398438 0.4375 13.796875 0.4375 Z M 12.828125 -21.109375 C 10.929688 -21.109375 9.414062 -20.488281 8.28125 -19.25 C 7.15625 -18.007812 6.488281 -16.296875 6.28125 -14.109375 L 18.65625 -14.109375 C 18.65625 -16.367188 18.148438 -18.097656 17.140625 -19.296875 C 16.140625 -20.503906 14.703125 -21.109375 12.828125 -21.109375 Z M 12.828125 -21.109375 "/></g></g></g><g fill="#000000" fill-opacity="1"><g transform="translate(273.599281, 209.814194)"><g/></g></g><g fill="#000000" fill-opacity="1"><g transform="translate(285.087046, 209.814194)"><g><path d="M 8.9375 -25.296875 C 8.9375 -24.296875 9.195312 -23.347656 9.71875 -22.453125 C 10.238281 -21.554688 11.125 -20.472656 12.375 -19.203125 C 14.226562 -20.285156 15.519531 -21.28125 16.25 -22.1875 C 16.976562 -23.101562 17.34375 -24.160156 17.34375 -25.359375 C 17.34375 -26.460938 16.972656 -27.363281 16.234375 -28.0625 C 15.492188 -28.757812 14.503906 -29.109375 13.265625 -29.109375 C 11.984375 -29.109375 10.941406 -28.765625 10.140625 -28.078125 C 9.335938 -27.390625 8.9375 -26.460938 8.9375 -25.296875 Z M 12.296875 -2.78125 C 15.765625 -2.78125 18.640625 -3.890625 20.921875 -6.109375 L 11.484375 -15.265625 C 9.890625 -14.285156 8.757812 -13.472656 8.09375 -12.828125 C 7.4375 -12.191406 6.945312 -11.503906 6.625 -10.765625 C 6.3125 -10.035156 6.15625 -9.203125 6.15625 -8.265625 C 6.15625 -6.585938 6.710938 -5.253906 7.828125 -4.265625 C 8.941406 -3.273438 10.429688 -2.78125 12.296875 -2.78125 Z M 2.4375 -8.1875 C 2.4375 -10.0625 2.9375 -11.71875 3.9375 -13.15625 C 4.9375 -14.59375 6.734375 -16.046875 9.328125 -17.515625 C 8.109375 -18.878906 7.273438 -19.914062 6.828125 -20.625 C 6.390625 -21.332031 6.039062 -22.066406 5.78125 -22.828125 C 5.53125 -23.585938 5.40625 -24.378906 5.40625 -25.203125 C 5.40625 -27.367188 6.109375 -29.054688 7.515625 -30.265625 C 8.929688 -31.472656 10.894531 -32.078125 13.40625 -32.078125 C 15.738281 -32.078125 17.570312 -31.472656 18.90625 -30.265625 C 20.25 -29.066406 20.921875 -27.394531 20.921875 -25.25 C 20.921875 -23.707031 20.429688 -22.285156 19.453125 -20.984375 C 18.472656 -19.679688 16.851562 -18.359375 14.59375 -17.015625 L 23.390625 -8.578125 C 24.191406 -9.460938 24.832031 -10.503906 25.3125 -11.703125 C 25.800781 -12.910156 26.210938 -14.226562 26.546875 -15.65625 L 30.171875 -15.65625 C 29.191406 -11.539062 27.71875 -8.414062 25.75 -6.28125 L 32.203125 0 L 27.25 0 L 23.265625 -3.84375 C 21.566406 -2.320312 19.835938 -1.226562 18.078125 -0.5625 C 16.316406 0.101562 14.359375 0.4375 12.203125 0.4375 C 9.109375 0.4375 6.707031 -0.320312 5 -1.84375 C 3.289062 -3.375 2.4375 -5.488281 2.4375 -8.1875 Z M 2.4375 -8.1875 "/></g></g></g><g fill="#000000" fill-opacity="1"><g transform="translate(317.369392, 209.814194)"><g/></g></g><g fill="#000000" fill-opacity="1"><g transform="translate(328.857157, 209.814194)"><g><path d="M 21.9375 0 L 4.34375 0 L 4.34375 -31.578125 L 21.9375 -31.578125 L 21.9375 -28.3125 L 8.015625 -28.3125 L 8.015625 -18.140625 L 21.109375 -18.140625 L 21.109375 -14.90625 L 8.015625 -14.90625 L 8.015625 -3.28125 L 21.9375 -3.28125 Z M 21.9375 0 "/></g></g></g><g fill="#000000" fill-opacity="1"><g transform="translate(353.452202, 209.814194)"><g><path d="M 20 0 L 20 -15.3125 C 20 -17.238281 19.554688 -18.675781 18.671875 -19.625 C 17.796875 -20.582031 16.425781 -21.0625 14.5625 -21.0625 C 12.082031 -21.0625 10.265625 -20.390625 9.109375 -19.046875 C 7.960938 -17.710938 7.390625 -15.503906 7.390625 -12.421875 L 7.390625 0 L 3.796875 0 L 3.796875 -23.671875 L 6.71875 -23.671875 L 7.296875 -20.4375 L 7.46875 -20.4375 C 8.207031 -21.601562 9.238281 -22.503906 10.5625 -23.140625 C 11.882812 -23.785156 13.359375 -24.109375 14.984375 -24.109375 C 17.835938 -24.109375 19.984375 -23.421875 21.421875 -22.046875 C 22.859375 -20.671875 23.578125 -18.46875 23.578125 -15.4375 L 23.578125 0 Z M 20 0 "/></g></g></g><g fill="#000000" fill-opacity="1"><g transform="translate(380.595285, 209.814194)"><g><path d="M 23.171875 -23.671875 L 23.171875 -21.40625 L 18.796875 -20.890625 C 19.191406 -20.378906 19.546875 -19.71875 19.859375 -18.90625 C 20.179688 -18.09375 20.34375 -17.175781 20.34375 -16.15625 C 20.34375 -13.832031 19.550781 -11.976562 17.96875 -10.59375 C 16.382812 -9.21875 14.210938 -8.53125 11.453125 -8.53125 C 10.742188 -8.53125 10.078125 -8.585938 9.453125 -8.703125 C 7.929688 -7.898438 7.171875 -6.882812 7.171875 -5.65625 C 7.171875 -5.007812 7.4375 -4.53125 7.96875 -4.21875 C 8.5 -3.914062 9.414062 -3.765625 10.71875 -3.765625 L 14.90625 -3.765625 C 17.46875 -3.765625 19.4375 -3.222656 20.8125 -2.140625 C 22.1875 -1.054688 22.875 0.507812 22.875 2.5625 C 22.875 5.1875 21.820312 7.1875 19.71875 8.5625 C 17.613281 9.9375 14.546875 10.625 10.515625 10.625 C 7.421875 10.625 5.035156 10.046875 3.359375 8.890625 C 1.679688 7.742188 0.84375 6.117188 0.84375 4.015625 C 0.84375 2.578125 1.300781 1.332031 2.21875 0.28125 C 3.144531 -0.769531 4.441406 -1.484375 6.109375 -1.859375 C 5.503906 -2.128906 4.992188 -2.550781 4.578125 -3.125 C 4.171875 -3.707031 3.96875 -4.378906 3.96875 -5.140625 C 3.96875 -6.003906 4.195312 -6.757812 4.65625 -7.40625 C 5.125 -8.050781 5.851562 -8.675781 6.84375 -9.28125 C 5.625 -9.789062 4.628906 -10.648438 3.859375 -11.859375 C 3.085938 -13.066406 2.703125 -14.445312 2.703125 -16 C 2.703125 -18.59375 3.476562 -20.59375 5.03125 -22 C 6.582031 -23.40625 8.785156 -24.109375 11.640625 -24.109375 C 12.878906 -24.109375 13.992188 -23.960938 14.984375 -23.671875 Z M 4.296875 3.96875 C 4.296875 5.25 4.832031 6.222656 5.90625 6.890625 C 6.988281 7.554688 8.539062 7.890625 10.5625 7.890625 C 13.570312 7.890625 15.800781 7.4375 17.25 6.53125 C 18.695312 5.632812 19.421875 4.414062 19.421875 2.875 C 19.421875 1.59375 19.023438 0.703125 18.234375 0.203125 C 17.441406 -0.296875 15.953125 -0.546875 13.765625 -0.546875 L 9.453125 -0.546875 C 7.828125 -0.546875 6.5625 -0.15625 5.65625 0.625 C 4.75 1.40625 4.296875 2.519531 4.296875 3.96875 Z M 6.234375 -16.09375 C 6.234375 -14.4375 6.703125 -13.179688 7.640625 -12.328125 C 8.578125 -11.484375 9.882812 -11.0625 11.5625 -11.0625 C 15.050781 -11.0625 16.796875 -12.757812 16.796875 -16.15625 C 16.796875 -19.707031 15.023438 -21.484375 11.484375 -21.484375 C 9.804688 -21.484375 8.507812 -21.03125 7.59375 -20.125 C 6.6875 -19.21875 6.234375 -17.875 6.234375 -16.09375 Z M 6.234375 -16.09375 "/></g></g></g><g fill="#000000" fill-opacity="1"><g transform="translate(404.82324, 209.814194)"><g><path d="M 7.390625 0 L 3.796875 0 L 3.796875 -23.671875 L 7.390625 -23.671875 Z M 3.5 -30.09375 C 3.5 -30.90625 3.695312 -31.503906 4.09375 -31.890625 C 4.5 -32.273438 5.003906 -32.46875 5.609375 -32.46875 C 6.191406 -32.46875 6.691406 -32.269531 7.109375 -31.875 C 7.523438 -31.488281 7.734375 -30.894531 7.734375 -30.09375 C 7.734375 -29.28125 7.523438 -28.675781 7.109375 -28.28125 C 6.691406 -27.882812 6.191406 -27.6875 5.609375 -27.6875 C 5.003906 -27.6875 4.5 -27.882812 4.09375 -28.28125 C 3.695312 -28.675781 3.5 -29.28125 3.5 -30.09375 Z M 3.5 -30.09375 "/></g></g></g><g fill="#000000" fill-opacity="1"><g transform="translate(416.008696, 209.814194)"><g><path d="M 20 0 L 20 -15.3125 C 20 -17.238281 19.554688 -18.675781 18.671875 -19.625 C 17.796875 -20.582031 16.425781 -21.0625 14.5625 -21.0625 C 12.082031 -21.0625 10.265625 -20.390625 9.109375 -19.046875 C 7.960938 -17.710938 7.390625 -15.503906 7.390625 -12.421875 L 7.390625 0 L 3.796875 0 L 3.796875 -23.671875 L 6.71875 -23.671875 L 7.296875 -20.4375 L 7.46875 -20.4375 C 8.207031 -21.601562 9.238281 -22.503906 10.5625 -23.140625 C 11.882812 -23.785156 13.359375 -24.109375 14.984375 -24.109375 C 17.835938 -24.109375 19.984375 -23.421875 21.421875 -22.046875 C 22.859375 -20.671875 23.578125 -18.46875 23.578125 -15.4375 L 23.578125 0 Z M 20 0 "/></g></g></g><g fill="#000000" fill-opacity="1"><g transform="translate(443.151779, 209.814194)"><g><path d="M 13.796875 0.4375 C 10.296875 0.4375 7.535156 -0.628906 5.515625 -2.765625 C 3.492188 -4.898438 2.484375 -7.859375 2.484375 -11.640625 C 2.484375 -15.453125 3.421875 -18.484375 5.296875 -20.734375 C 7.179688 -22.984375 9.707031 -24.109375 12.875 -24.109375 C 15.84375 -24.109375 18.1875 -23.128906 19.90625 -21.171875 C 21.632812 -19.222656 22.5 -16.648438 22.5 -13.453125 L 22.5 -11.1875 L 6.203125 -11.1875 C 6.273438 -8.40625 6.972656 -6.296875 8.296875 -4.859375 C 9.628906 -3.421875 11.507812 -2.703125 13.9375 -2.703125 C 16.476562 -2.703125 18.992188 -3.234375 21.484375 -4.296875 L 21.484375 -1.09375 C 20.222656 -0.550781 19.023438 -0.160156 17.890625 0.078125 C 16.765625 0.316406 15.398438 0.4375 13.796875 0.4375 Z M 12.828125 -21.109375 C 10.929688 -21.109375 9.414062 -20.488281 8.28125 -19.25 C 7.15625 -18.007812 6.488281 -16.296875 6.28125 -14.109375 L 18.65625 -14.109375 C 18.65625 -16.367188 18.148438 -18.097656 17.140625 -19.296875 C 16.140625 -20.503906 14.703125 -21.109375 12.828125 -21.109375 Z M 12.828125 -21.109375 "/></g></g></g><g fill="#000000" fill-opacity="1"><g transform="translate(467.96276, 209.814194)"><g><path d="M 13.796875 0.4375 C 10.296875 0.4375 7.535156 -0.628906 5.515625 -2.765625 C 3.492188 -4.898438 2.484375 -7.859375 2.484375 -11.640625 C 2.484375 -15.453125 3.421875 -18.484375 5.296875 -20.734375 C 7.179688 -22.984375 9.707031 -24.109375 12.875 -24.109375 C 15.84375 -24.109375 18.1875 -23.128906 19.90625 -21.171875 C 21.632812 -19.222656 22.5 -16.648438 22.5 -13.453125 L 22.5 -11.1875 L 6.203125 -11.1875 C 6.273438 -8.40625 6.972656 -6.296875 8.296875 -4.859375 C 9.628906 -3.421875 11.507812 -2.703125 13.9375 -2.703125 C 16.476562 -2.703125 18.992188 -3.234375 21.484375 -4.296875 L 21.484375 -1.09375 C 20.222656 -0.550781 19.023438 -0.160156 17.890625 0.078125 C 16.765625 0.316406 15.398438 0.4375 13.796875 0.4375 Z M 12.828125 -21.109375 C 10.929688 -21.109375 9.414062 -20.488281 8.28125 -19.25 C 7.15625 -18.007812 6.488281 -16.296875 6.28125 -14.109375 L 18.65625 -14.109375 C 18.65625 -16.367188 18.148438 -18.097656 17.140625 -19.296875 C 16.140625 -20.503906 14.703125 -21.109375 12.828125 -21.109375 Z M 12.828125 -21.109375 "/></g></g></g><g fill="#000000" fill-opacity="1"><g transform="translate(492.77374, 209.814194)"><g><path d="M 14.59375 -24.109375 C 15.644531 -24.109375 16.59375 -24.019531 17.4375 -23.84375 L 16.9375 -20.515625 C 15.957031 -20.734375 15.09375 -20.84375 14.34375 -20.84375 C 12.425781 -20.84375 10.785156 -20.0625 9.421875 -18.5 C 8.066406 -16.945312 7.390625 -15.015625 7.390625 -12.703125 L 7.390625 0 L 3.796875 0 L 3.796875 -23.671875 L 6.765625 -23.671875 L 7.171875 -19.28125 L 7.34375 -19.28125 C 8.21875 -20.820312 9.273438 -22.007812 10.515625 -22.84375 C 11.753906 -23.6875 13.113281 -24.109375 14.59375 -24.109375 Z M 14.59375 -24.109375 "/></g></g></g><g fill="#000000" fill-opacity="1"><g transform="translate(510.825942, 209.814194)"><g><path d="M 7.390625 0 L 3.796875 0 L 3.796875 -23.671875 L 7.390625 -23.671875 Z M 3.5 -30.09375 C 3.5 -30.90625 3.695312 -31.503906 4.09375 -31.890625 C 4.5 -32.273438 5.003906 -32.46875 5.609375 -32.46875 C 6.191406 -32.46875 6.691406 -32.269531 7.109375 -31.875 C 7.523438 -31.488281 7.734375 -30.894531 7.734375 -30.09375 C 7.734375 -29.28125 7.523438 -28.675781 7.109375 -28.28125 C 6.691406 -27.882812 6.191406 -27.6875 5.609375 -27.6875 C 5.003906 -27.6875 4.5 -27.882812 4.09375 -28.28125 C 3.695312 -28.675781 3.5 -29.28125 3.5 -30.09375 Z M 3.5 -30.09375 "/></g></g></g><g fill="#000000" fill-opacity="1"><g transform="translate(522.011397, 209.814194)"><g><path d="M 20 0 L 20 -15.3125 C 20 -17.238281 19.554688 -18.675781 18.671875 -19.625 C 17.796875 -20.582031 16.425781 -21.0625 14.5625 -21.0625 C 12.082031 -21.0625 10.265625 -20.390625 9.109375 -19.046875 C 7.960938 -17.710938 7.390625 -15.503906 7.390625 -12.421875 L 7.390625 0 L 3.796875 0 L 3.796875 -23.671875 L 6.71875 -23.671875 L 7.296875 -20.4375 L 7.46875 -20.4375 C 8.207031 -21.601562 9.238281 -22.503906 10.5625 -23.140625 C 11.882812 -23.785156 13.359375 -24.109375 14.984375 -24.109375 C 17.835938 -24.109375 19.984375 -23.421875 21.421875 -22.046875 C 22.859375 -20.671875 23.578125 -18.46875 23.578125 -15.4375 L 23.578125 0 Z M 20 0 "/></g></g></g><g fill="#000000" fill-opacity="1"><g transform="translate(549.154481, 209.814194)"><g><path d="M 23.171875 -23.671875 L 23.171875 -21.40625 L 18.796875 -20.890625 C 19.191406 -20.378906 19.546875 -19.71875 19.859375 -18.90625 C 20.179688 -18.09375 20.34375 -17.175781 20.34375 -16.15625 C 20.34375 -13.832031 19.550781 -11.976562 17.96875 -10.59375 C 16.382812 -9.21875 14.210938 -8.53125 11.453125 -8.53125 C 10.742188 -8.53125 10.078125 -8.585938 9.453125 -8.703125 C 7.929688 -7.898438 7.171875 -6.882812 7.171875 -5.65625 C 7.171875 -5.007812 7.4375 -4.53125 7.96875 -4.21875 C 8.5 -3.914062 9.414062 -3.765625 10.71875 -3.765625 L 14.90625 -3.765625 C 17.46875 -3.765625 19.4375 -3.222656 20.8125 -2.140625 C 22.1875 -1.054688 22.875 0.507812 22.875 2.5625 C 22.875 5.1875 21.820312 7.1875 19.71875 8.5625 C 17.613281 9.9375 14.546875 10.625 10.515625 10.625 C 7.421875 10.625 5.035156 10.046875 3.359375 8.890625 C 1.679688 7.742188 0.84375 6.117188 0.84375 4.015625 C 0.84375 2.578125 1.300781 1.332031 2.21875 0.28125 C 3.144531 -0.769531 4.441406 -1.484375 6.109375 -1.859375 C 5.503906 -2.128906 4.992188 -2.550781 4.578125 -3.125 C 4.171875 -3.707031 3.96875 -4.378906 3.96875 -5.140625 C 3.96875 -6.003906 4.195312 -6.757812 4.65625 -7.40625 C 5.125 -8.050781 5.851562 -8.675781 6.84375 -9.28125 C 5.625 -9.789062 4.628906 -10.648438 3.859375 -11.859375 C 3.085938 -13.066406 2.703125 -14.445312 2.703125 -16 C 2.703125 -18.59375 3.476562 -20.59375 5.03125 -22 C 6.582031 -23.40625 8.785156 -24.109375 11.640625 -24.109375 C 12.878906 -24.109375 13.992188 -23.960938 14.984375 -23.671875 Z M 4.296875 3.96875 C 4.296875 5.25 4.832031 6.222656 5.90625 6.890625 C 6.988281 7.554688 8.539062 7.890625 10.5625 7.890625 C 13.570312 7.890625 15.800781 7.4375 17.25 6.53125 C 18.695312 5.632812 19.421875 4.414062 19.421875 2.875 C 19.421875 1.59375 19.023438 0.703125 18.234375 0.203125 C 17.441406 -0.296875 15.953125 -0.546875 13.765625 -0.546875 L 9.453125 -0.546875 C 7.828125 -0.546875 6.5625 -0.15625 5.65625 0.625 C 4.75 1.40625 4.296875 2.519531 4.296875 3.96875 Z M 6.234375 -16.09375 C 6.234375 -14.4375 6.703125 -13.179688 7.640625 -12.328125 C 8.578125 -11.484375 9.882812 -11.0625 11.5625 -11.0625 C 15.050781 -11.0625 16.796875 -12.757812 16.796875 -16.15625 C 16.796875 -19.707031 15.023438 -21.484375 11.484375 -21.484375 C 9.804688 -21.484375 8.507812 -21.03125 7.59375 -20.125 C 6.6875 -19.21875 6.234375 -17.875 6.234375 -16.09375 Z M 6.234375 -16.09375 "/></g></g></g></svg>